<?xml version="1.0" encoding="utf-8"?>
<!-- Generator: Adobe Illustrator 19.1.1, SVG Export Plug-In . SVG Version: 6.00 Build 0)  -->
<svg version="1.1" id="Слой_1" xmlns="http://www.w3.org/2000/svg" xmlns:xlink="http://www.w3.org/1999/xlink" x="0px" y="0px"
	 viewBox="0 0 32 32" style="enable-background:new 0 0 32 32;" xml:space="preserve">
<style type="text/css">
	.st0{fill:#ED3123;}
</style>
<path class="st0" d="M21.1,1.9c1.6,0,2.6,1.3,2.6,2.6C23.7,7,19.2,7,17.3,7C17.3,3.2,19.6,1.9,21.1,1.9z M21.1,0
	c-2.6,0-5.8,2.6-5.8,9C16,9,16,9,19.8,9c1.9,0,5.8-1.3,5.8-4.5C25.6,2.6,24.3,0,21.1,0z M10.9,0C7.7,0,6.4,2.6,6.4,4.5
	c0,3.2,3.8,4.5,5.8,4.5C16,9,16,9,16.6,9C16.6,2.6,13.4,0,10.9,0z M10.9,1.9c1.5,0,3.8,1.3,3.8,5.1c-1.9,0-6.4,0-6.4-2.6
	C8.3,3.2,9.3,1.9,10.9,1.9z M28.8,21.8H17.3V32h10.2c1.3,0,1.3,0,1.3-1.3V21.8z M14.7,9H0.6v2.6h2.6v7.7h11.5V9z M14.7,21.8H3.2v9
	c0,1.3,0,1.3,1.3,1.3h10.2V21.8z M31.4,9H17.3v10.2h11.5v-7.7h2.6V9z"/>
</svg>
