<svg id="Слой_1" data-name="Слой 1" xmlns="http://www.w3.org/2000/svg" viewBox="0 0 32 32"><defs><style>.cls-1{fill:#ed3b2e;}</style></defs><title>30</title><path class="cls-1" d="M24.41,31.87H7.58a3.94,3.94,0,0,1-4-3.93V4.06a3.94,3.94,0,0,1,4-3.93H24.41a3.94,3.94,0,0,1,4,3.93V27.94A3.94,3.94,0,0,1,24.41,31.87ZM7.58,2.18A1.89,1.89,0,0,0,5.69,4.06V27.94a1.89,1.89,0,0,0,1.89,1.88H24.41a1.89,1.89,0,0,0,1.89-1.88V4.06a1.89,1.89,0,0,0-1.89-1.88Z"/><path class="cls-1" d="M24.41,32H7.58A4.08,4.08,0,0,1,3.5,27.94V4.06A4.08,4.08,0,0,1,7.58,0H24.41A4.08,4.08,0,0,1,28.5,4.06V27.94A4.08,4.08,0,0,1,24.41,32ZM7.58.27A3.81,3.81,0,0,0,3.77,4.06V27.94a3.81,3.81,0,0,0,3.82,3.79H24.41a3.81,3.81,0,0,0,3.82-3.79V4.06A3.81,3.81,0,0,0,24.41.27ZM24.41,30H7.58a2,2,0,0,1-2-2V4.06a2,2,0,0,1,2-2H24.41a2,2,0,0,1,2,2V27.94A2,2,0,0,1,24.41,30ZM7.58,2.31A1.75,1.75,0,0,0,5.83,4.06V27.94a1.75,1.75,0,0,0,1.76,1.75H24.41a1.75,1.75,0,0,0,1.76-1.75V4.06a1.75,1.75,0,0,0-1.76-1.75Z"/><rect class="cls-1" x="9.42" y="5.6" width="1.94" height="5.52" transform="translate(18.75 -2.04) rotate(90)"/><rect class="cls-1" x="9.42" y="15.32" width="1.94" height="5.52" transform="translate(28.48 7.69) rotate(90)"/><rect class="cls-1" x="9.42" y="20.18" width="1.94" height="5.52" transform="translate(33.34 12.55) rotate(90)"/><rect class="cls-1" x="8.67" y="11.22" width="1.94" height="4" transform="translate(22.86 3.58) rotate(90)"/><rect class="cls-1" x="16.34" y="6.16" width="1.94" height="4.4" transform="translate(25.67 -8.95) rotate(90)"/><rect class="cls-1" x="18.99" y="8.37" width="1.94" height="9.7" transform="translate(33.18 -6.74) rotate(90)"/><rect class="cls-1" x="18.99" y="13.23" width="1.94" height="9.7" transform="translate(38.04 -1.88) rotate(90)"/><rect class="cls-1" x="17.83" y="19.25" width="1.94" height="7.38" transform="translate(41.74 4.14) rotate(90)"/></svg>