<?xml version="1.0" encoding="utf-8"?>
<!-- Generator: Adobe Illustrator 19.1.1, SVG Export Plug-In . SVG Version: 6.00 Build 0)  -->
<svg version="1.1" id="Слой_1" xmlns="http://www.w3.org/2000/svg" xmlns:xlink="http://www.w3.org/1999/xlink" x="0px" y="0px"
	 viewBox="0 0 32 32" style="enable-background:new 0 0 32 32;" xml:space="preserve">
<style type="text/css">
	.st0{fill:#ED3123;}
</style>
<g>
	<path class="st0" d="M23.4,29.7h-5H18H2.8V2.3h20.5v12.5l2.3-4.1V2.3C25.7,1,24.8,0,23.5,0H2.8C1.5,0,0.6,1,0.6,2.3v27.4
		c0,1.3,0.9,2.2,2.2,2.2h20.7c1.3,0,2.2-0.9,2.2-2.2v-7.5l-2.3,4.1V29.7z"/>
	<rect x="4.8" y="5.9" class="st0" width="12.7" height="1.6"/>
	<rect x="4.8" y="13.4" class="st0" width="12.7" height="1.6"/>
	<rect x="4.8" y="9.8" class="st0" width="16.6" height="1.6"/>
	<rect x="4.8" y="17.3" class="st0" width="16.6" height="1.6"/>
	<rect x="4.8" y="20.9" class="st0" width="12.7" height="1.6"/>
	<polygon class="st0" points="29.1,8.2 28.5,9.3 28.3,9.8 30.6,11.1 30.8,10.6 31.4,9.5 	"/>
	<polygon class="st0" points="19.5,24.6 19.5,27.4 21.8,26 29.9,11.9 27.6,10.6 	"/>
	<circle class="st0" cx="6.3" cy="26.3" r="1.6"/>
	<circle class="st0" cx="11.3" cy="26.3" r="1.6"/>
</g>
</svg>
