<svg id="Слой_1" data-name="Слой 1" xmlns="http://www.w3.org/2000/svg" viewBox="0 0 32 32"><defs><style>.cls-1{fill:#ed3b2e;}</style></defs><title>zay</title><path class="cls-1" d="M24.41,31.87H7.58a3.94,3.94,0,0,1-4-3.88V4.06A3.94,3.94,0,0,1,7.53.13H24.41a3.94,3.94,0,0,1,4,3.88V27.94a3.94,3.94,0,0,1-3.95,3.93ZM7.58,2.18A1.89,1.89,0,0,0,5.69,4.06V27.94a1.89,1.89,0,0,0,1.89,1.88H24.41a1.89,1.89,0,0,0,1.89-1.88V4.06a1.89,1.89,0,0,0-1.89-1.88Z"/><path class="cls-1" d="M24.41,32H7.58A4.08,4.08,0,0,1,3.5,27.94V4.06A4.08,4.08,0,0,1,7.58,0H24.41A4.08,4.08,0,0,1,28.5,4.06V27.94A4.08,4.08,0,0,1,24.41,32ZM7.58.27A3.81,3.81,0,0,0,3.77,4.06V27.94a3.81,3.81,0,0,0,3.82,3.79H24.41a3.81,3.81,0,0,0,3.82-3.79V4.06A3.81,3.81,0,0,0,24.41.27ZM24.41,30H7.58a2,2,0,0,1-2-2V4.06a2,2,0,0,1,2-2H24.41a2,2,0,0,1,2,2V27.94A2,2,0,0,1,24.47,30ZM7.58,2.31A1.75,1.75,0,0,0,5.83,4.06V27.94a1.75,1.75,0,0,0,1.75,1.75H24.41A1.75,1.75,0,0,0,26.17,28h0V4.06a1.75,1.75,0,0,0-1.75-1.75H7.58Z"/><rect class="cls-1" x="7.64" y="16.14" width="17.17" height="1.94"/><rect class="cls-1" x="7.64" y="11.28" width="16.98" height="1.94"/><rect class="cls-1" x="15.11" y="6.42" width="9.51" height="1.94"/><path class="cls-1" d="M8.1,26.53l0,0L8.07,26l0,0,.54.07c-.18-.38.14-1.2.28-1.59a4.88,4.88,0,0,1,3.55-3.1c1.93-.43,1.93,1.59,1.91,2.93a5.3,5.3,0,0,1-.65,2.87c-.31.67-1.5.38-.7-.93a2.14,2.14,0,0,1,1-.59,5.18,5.18,0,0,1,1.5-.16,1.49,1.49,0,0,1,1.69,1.19c.08.26.05.62.26.83.7.72,1.78-.71,2.09-1.23h-.6c.45.93,1.42.67,2.16.26l-.51-.21c.35,1.25,2.9.44,3.79.27.44-.08.25-.75-.18-.67-.21,0-2.84.58-2.94.21a.35.35,0,0,0-.51-.21,1,1,0,0,1-1.21,0,.35.35,0,0,0-.6,0,2.56,2.56,0,0,1-.58.73c-.37.26-.41.19-.51-.17a5.24,5.24,0,0,0-.3-.9,1.73,1.73,0,0,0-1.19-.72,4.39,4.39,0,0,0-3.88.88c-.66.71-.86,2.26.23,2.72s1.62-1,1.88-1.66c.71-1.87,1.08-6.68-2-6.18a5.63,5.63,0,0,0-3.49,2c-.66.83-1.62,2.66-1.11,3.73a.35.35,0,0,0,.54.07l0,0A.35.35,0,0,0,8.48,26l0,0c-.36-.27-.7.33-.35.6Z"/></svg>