<?xml version="1.0" encoding="utf-8"?>
<!-- Generator: Adobe Illustrator 19.1.1, SVG Export Plug-In . SVG Version: 6.00 Build 0)  -->
<svg version="1.1" id="Слой_1" xmlns="http://www.w3.org/2000/svg" xmlns:xlink="http://www.w3.org/1999/xlink" x="0px" y="0px"
	 viewBox="0 0 32 32" style="enable-background:new 0 0 32 32;" xml:space="preserve">
<style type="text/css">
	.st0{fill:#ED3123;}
</style>
<path class="st0" d="M27.2,15v-0.6c-0.3,0.3-0.6,0.6-1,0.9c0.3,0.1,0.6,0.3,0.9,0.5C27.1,15.5,27.2,15.3,27.2,15z M27.2,7.5
	c-1.6,1.8-4.6,2.9-8.1,2.9v2.3c4.4,0,8.1-2.1,8.1-4.6V7.5z M27.2,11c-1.6,1.8-4.6,2.9-8.1,2.9V15c1-0.4,2.1-0.5,3.2-0.5
	c0.9,0,1.7,0.1,2.5,0.3c1.5-0.8,2.5-2,2.5-3.3L27.2,11L27.2,11z M18.9,9.2c0.1,0,0.1,0,0.2,0c4.4,0,8.1-2.1,8.1-4.6S23.5,0,19,0
	s-8.1,2.1-8.1,4.6l0,0C14.9,5,18.1,6.8,18.9,9.2z M9.7,15c4.4,0,8.1-2.1,8.1-4.6s-3.7-4.6-8.1-4.6s-8.1,2.1-8.1,4.6S5.3,15,9.7,15z
	 M9.7,25.4c1.1,0,2.2-0.1,3.2-0.4c-0.1-0.4-0.1-0.8-0.1-1.2c0-0.3,0-0.7,0.1-1c-1,0.2-2,0.3-3.2,0.3c-3.5,0-6.5-1.2-8.1-2.9v0.6
	C1.6,23.3,5.3,25.4,9.7,25.4z M9.7,18.5c4.4,0,8.1-2.1,8.1-4.6v-0.6c-1.6,1.8-4.6,2.9-8.1,2.9S3.2,15,1.6,13.3v0.6
	C1.6,16.4,5.3,18.5,9.7,18.5z M22.2,15.6c-4.5,0-8.2,3.7-8.2,8.2s3.7,8.2,8.2,8.2s8.2-3.7,8.2-8.2C30.4,19.3,26.7,15.6,22.2,15.6z
	 M22.2,18.9c-2.7,0-4.9,2.2-4.9,4.9c0,0.3-0.3,0.6-0.6,0.6c-0.3,0-0.6-0.3-0.6-0.6c0-3.4,2.8-6.1,6.1-6.1c0.3,0,0.6,0.3,0.6,0.6
	C22.8,18.6,22.5,18.9,22.2,18.9z M9.7,26.6c-3.5,0-6.5-1.2-8.1-2.9v0.6c0,2.5,3.7,4.6,8.1,4.6c1.5,0,3-0.3,4.2-0.7
	c-0.3-0.6-0.6-1.3-0.8-2C12.1,26.5,10.9,26.6,9.7,26.6z M9.7,22c1.2,0,2.4-0.2,3.4-0.4c0.2-0.9,0.6-1.7,1-2.5
	c-1.3,0.4-2.8,0.7-4.4,0.7c-3.5,0-6.5-1.2-8.1-2.9v0.6C1.6,19.8,5.3,22,9.7,22z"/>
</svg>
